<svg width="895" height="912" viewBox="0 0 895 912" fill="none" xmlns="http://www.w3.org/2000/svg">
<g clip-path="url(#clip0_2_3)">
<path d="M895 300.031L791.149 360L687.237 419.908V419.969L583.324 479.939L479.412 539.969L375.561 600L271.588 539.969L167.737 480V479.939H167.676L63.8245 419.969L-40.0878 360H-40.1489L-144 300.031L-40.0878 240L63.8245 299.969L167.737 360L271.588 419.908L375.561 479.939L479.412 419.908L375.561 360L271.588 299.969L167.737 240V239.939H167.676L63.8245 179.969L167.737 120L271.588 179.969L375.561 239.939L479.412 299.969L583.324 359.939L687.237 299.969L583.324 239.939L479.412 179.969L375.561 120L271.649 60.0306L375.561 0L479.351 60.0306H479.412L583.324 120L687.237 179.969L791.088 240H791.149L895 300.031Z" fill="#424242" fill-opacity="0.1"/>
<path d="M687.237 299.969L583.324 359.939L479.412 299.969L375.561 239.939L271.588 179.969V60.0306H271.649L375.561 120L479.412 179.969L583.324 239.939L687.237 299.969Z" fill="#2D2D2D" fill-opacity="0.1"/>
<path d="M479.412 419.908L375.561 479.939L271.588 419.908L167.737 360L63.8244 299.969V179.969L167.676 239.939H167.737V240L271.588 299.969L375.561 360L479.412 419.908Z" fill="#2D2D2D" fill-opacity="0.1"/>
<path d="M895 300.092V420.153L791.149 480.061H791.088L687.237 540.092L583.324 600.061V600.122L479.412 660.092V1020.03L583.324 960.061L687.237 900.031L791.088 840.061H791.149V840L895 780.031V900.031L791.149 960.061L687.237 1020.03L583.324 1080V1080.06L479.412 1140.03L375.561 1200V600.061L479.351 540.092H479.412V540.031L583.324 480.061L687.237 420.153V420.092L791.149 360.122V360.061L895 300.092Z" fill="white" fill-opacity="0.1"/>
<path d="M895 780.031L791.149 840V840.061H791.088L687.237 900.03L583.324 960.061L479.412 1020.03V900.092L583.324 840.061L687.237 780.092V780.031L791.088 720.061H791.149L895 780.031Z" fill="#2D2D2D" fill-opacity="0.1"/>
<path d="M375.561 600.061V1200L271.588 1140.03V660.092L167.798 600.122H167.737V1080L63.8245 1020.03V540.031L-40.0878 480.061V960.061L-144 900.031V780.092V780.031V300.092L-40.0878 360.122L63.8245 420.092V420.153L167.737 480.061L271.588 540.031V540.153L271.649 540.092L375.561 600.061Z" fill="#424242" fill-opacity="0.1"/>
<path d="M63.8245 540.031V900.092L-40.0878 960.061V480.061L63.8245 540.031Z" fill="#2D2D2D" fill-opacity="0.1"/>
<path d="M271.588 660.092V1020.03L167.737 1080V600.122H167.798L271.588 660.092Z" fill="#2D2D2D" fill-opacity="0.1"/>
</g>
<defs>
<clipPath id="clip0_2_3">
<rect width="895" height="912" fill="white"/>
</clipPath>
</defs>
</svg>
